# xmcd
#
# Track frame offsets: 
#        150
#        38079
#        66660
#        100212
#        147728
#        184415
#        218066
#        251128
#        290887
#
# Disc length: 4385 seconds
#
# Revision: 1
# Processed by: cddbd v1.5.2PL0 Copyright (c) Steve Scherf et al.
# Submitted via: ExactAudioCopyFreeDBPlugin 1.0
#
DISCID=9d111f09
DTITLE=Joe Bonamassa - Live at the Sydney Opera House
DYEAR=2019
DGENRE=Blues
TTITLE0=This Train
TTITLE1=Mountain Climbing
TTITLE2=Drive
TTITLE3=Love Ain't A Love Song
TTITLE4=How Deep This River Runs
TTITLE5=Mainline Florida
TTITLE6=The Valley Runs Low
TTITLE7=Blues Of Desperation
TTITLE8=No Good Place For The Lonely
EXTD=
EXTT0=
EXTT1=
EXTT2=
EXTT3=
EXTT4=
EXTT5=
EXTT6=
EXTT7=
EXTT8=
PLAYORDER=
